<svg width="1584" height="396" viewBox="0 0 1584 396" fill="none" xmlns="http://www.w3.org/2000/svg">
<rect width="1584" height="396" fill="#F5F5F5"/>
<g id="Awesome banner" clip-path="url(#clip0_0_1)">
<rect width="1584" height="396" fill="url(#paint0_linear_0_1)"/>
<ellipse id="Ellipse 2" cx="323" cy="64" rx="285" ry="288" fill="url(#paint1_linear_0_1)" fill-opacity="0.1"/>
<g id="copyright">
<path d="M75.95 334.52L72.30 334.52L72.30 311.16L77.20 311.16L83.70 330.04Q83.60 329.02 83.50 327.62Q83.41 326.23 83.33 324.79Q83.25 323.35 83.25 322.23L83.25 311.16L86.90 311.16L86.90 334.52L82 334.52L75.57 315.64Q75.63 316.57 75.73 317.88Q75.82 319.19 75.89 320.57Q75.95 321.94 75.95 323.10L75.95 334.52M98.80 334.84Q96.46 334.84 94.67 333.96Q92.88 333.08 91.89 331.53Q90.90 329.98 90.90 327.93Q90.90 325.78 92.13 324.18Q93.36 322.58 95.34 322.17L95.34 322.10Q93.65 321.75 92.61 320.38Q91.57 319 91.57 317.11Q91.57 315.26 92.48 313.85Q93.39 312.44 95.02 311.64Q96.66 310.84 98.80 310.84Q100.94 310.84 102.59 311.64Q104.24 312.44 105.15 313.85Q106.06 315.26 106.06 317.11Q106.06 319 105.01 320.38Q103.95 321.75 102.26 322.10L102.26 322.17Q104.24 322.58 105.47 324.18Q106.70 325.78 106.70 327.93Q106.70 329.98 105.71 331.53Q104.72 333.08 102.93 333.96Q101.14 334.84 98.80 334.84M98.80 320.73Q100.30 320.73 101.23 319.82Q102.16 318.90 102.16 317.46Q102.16 315.99 101.23 315.08Q100.30 314.17 98.80 314.17Q97.30 314.17 96.37 315.08Q95.44 315.99 95.44 317.46Q95.44 318.90 96.37 319.82Q97.30 320.73 98.80 320.73M98.80 331.45Q100.56 331.45 101.68 330.42Q102.80 329.40 102.80 327.74Q102.80 326.04 101.68 325Q100.56 323.96 98.80 323.96Q97.04 323.96 95.92 325Q94.80 326.04 94.80 327.74Q94.80 329.40 95.92 330.42Q97.04 331.45 98.80 331.45M114.35 334.52L110.70 334.52L110.70 311.16L115.60 311.16L122.10 330.04Q122 329.02 121.90 327.62Q121.81 326.23 121.73 324.79Q121.65 323.35 121.65 322.23L121.65 311.16L125.30 311.16L125.30 334.52L120.40 334.52L113.97 315.64Q114.03 316.57 114.13 317.88Q114.22 319.19 114.29 320.57Q114.35 321.94 114.35 323.10" fill="white" fill-opacity="0.9"/>
<path d="M161.48 325.24L151.24 325.24L151.24 322.68L161.48 322.68" fill="white" fill-opacity="0.9"/>
<path d="M195.02 334.84Q191.82 334.84 189.96 333.05Q188.11 331.26 188.11 328.12L188.11 317.56Q188.11 314.42 189.96 312.63Q191.82 310.84 195.02 310.84Q198.15 310.84 200.01 312.65Q201.87 314.46 201.87 317.56L198.99 317.56Q198.99 315.58 197.95 314.50Q196.91 313.43 195.02 313.43Q193.13 313.43 192.06 314.50Q190.99 315.58 190.99 317.56L190.99 328.12Q190.99 330.10 192.06 331.18Q193.13 332.25 195.02 332.25Q196.91 332.25 197.95 331.18Q198.99 330.10 198.99 328.12L201.87 328.12Q201.87 331.22 200.01 333.03Q198.15 334.84 195.02 334.84" fill="white" fill-opacity="0.9"/>
<path d="M213.96 334.84Q210.83 334.84 209 333.02Q207.18 331.19 207.18 327.80L207.18 317.88Q207.18 314.49 209 312.66Q210.83 310.84 213.96 310.84Q217.10 310.84 218.92 312.66Q220.75 314.49 220.75 317.85L220.75 327.80Q220.75 331.19 218.92 333.02Q217.10 334.84 213.96 334.84M213.96 332.25Q215.85 332.25 216.86 331.18Q217.87 330.10 217.87 328.12L217.87 317.56Q217.87 315.58 216.86 314.50Q215.85 313.43 213.96 313.43Q212.11 313.43 211.08 314.50Q210.06 315.58 210.06 317.56L210.06 328.12Q210.06 330.10 211.08 331.18Q212.11 332.25 213.96 332.25" fill="white" fill-opacity="0.9"/>
<path d="M228.65 334.52L225.87 334.52L225.87 311.16L230.12 311.16L233.10 321.27L236.20 311.16L240.46 311.16L240.46 334.52L237.67 334.52L237.67 323.48Q237.67 321.91 237.72 319.88Q237.77 317.85 237.87 315.77Q237.96 313.69 238.09 312.02L234.31 324.09L231.82 324.09L228.20 312.31Q228.46 314.68 228.55 317.50Q228.65 320.31 228.65 323.48" fill="white" fill-opacity="0.9"/>
<path d="M247.85 334.52L245.07 334.52L245.07 311.16L249.32 311.16L252.30 321.27L255.40 311.16L259.66 311.16L259.66 334.52L256.87 334.52L256.87 323.48Q256.87 321.91 256.92 319.88Q256.97 317.85 257.07 315.77Q257.16 313.69 257.29 312.02L253.51 324.09L251.02 324.09L247.40 312.31Q247.66 314.68 247.75 317.50Q247.85 320.31 247.85 323.48" fill="white" fill-opacity="0.9"/>
<path d="M271.56 334.84Q268.30 334.84 266.57 333.03Q264.84 331.22 264.84 328.12L264.84 311.16L267.72 311.16L267.72 328.12Q267.72 330.04 268.67 331.16Q269.61 332.28 271.56 332.28Q273.48 332.28 274.44 331.16Q275.40 330.04 275.40 328.12L275.40 311.16L278.28 311.16L278.28 328.12Q278.28 331.26 276.57 333.05Q274.86 334.84 271.56 334.84" fill="white" fill-opacity="0.9"/>
<path d="M286.83 334.52L284.04 334.52L284.04 311.16L287.88 311.16L295.02 331.16Q294.95 330.36 294.87 329.19Q294.79 328.02 294.75 326.73Q294.70 325.43 294.70 324.28L294.70 311.16L297.48 311.16L297.48 334.52L293.64 334.52L286.54 314.52Q286.60 315.29 286.67 316.46Q286.73 317.62 286.78 318.92Q286.83 320.22 286.83 321.40" fill="white" fill-opacity="0.9"/>
<path d="M316.20 334.52L303.72 334.52L303.72 331.90L308.49 331.90L308.49 313.78L303.72 313.78L303.72 311.16L316.20 311.16L316.20 313.78L311.43 313.78L311.43 331.90L316.20 331.90" fill="white" fill-opacity="0.9"/>
<path d="M330.60 334.52L327.72 334.52L327.72 313.78L321.32 313.78L321.32 311.16L337 311.16L337 313.78L330.60 313.78" fill="white" fill-opacity="0.9"/>
<path d="M349.80 334.52L346.92 334.52L346.92 325.78L339.88 311.16L342.95 311.16L347.50 320.76Q347.88 321.56 348.11 322.12Q348.33 322.68 348.39 322.94Q348.46 322.68 348.70 322.12Q348.94 321.56 349.32 320.76L353.87 311.16L356.84 311.16L349.80 325.78" fill="white" fill-opacity="0.9"/>
<path d="M382.83 334.52L380.04 334.52L380.04 311.16L383.88 311.16L391.02 331.16Q390.95 330.36 390.87 329.19Q390.79 328.02 390.75 326.73Q390.70 325.43 390.70 324.28L390.70 311.16L393.48 311.16L393.48 334.52L389.64 334.52L382.54 314.52Q382.60 315.29 382.67 316.46Q382.73 317.62 382.78 318.92Q382.83 320.22 382.83 321.40" fill="white" fill-opacity="0.9"/>
<path d="M405.96 334.84Q402.83 334.84 401 333.02Q399.18 331.19 399.18 327.80L399.18 317.88Q399.18 314.49 401 312.66Q402.83 310.84 405.96 310.84Q409.10 310.84 410.92 312.66Q412.75 314.49 412.75 317.85L412.75 327.80Q412.75 331.19 410.92 333.02Q409.10 334.84 405.96 334.84M405.96 332.25Q407.85 332.25 408.86 331.18Q409.87 330.10 409.87 328.12L409.87 317.56Q409.87 315.58 408.86 314.50Q407.85 313.43 405.96 313.43Q404.11 313.43 403.08 314.50Q402.06 315.58 402.06 317.56L402.06 328.12Q402.06 330.10 403.08 331.18Q404.11 332.25 405.96 332.25" fill="white" fill-opacity="0.9"/>
<path d="M424.55 334.52L418.51 334.52L418.51 311.16L424.55 311.16Q426.83 311.16 428.47 312.02Q430.12 312.89 431.03 314.46Q431.95 316.02 431.95 318.17L431.95 327.48Q431.95 329.62 431.03 331.21Q430.12 332.79 428.47 333.66Q426.83 334.52 424.55 334.52M421.39 313.72L421.39 331.96L424.55 331.96Q426.67 331.96 427.87 330.78Q429.07 329.59 429.07 327.48L429.07 318.17Q429.07 316.09 427.87 314.90Q426.67 313.72 424.55 313.72" fill="white" fill-opacity="0.9"/>
<path d="M451.40 334.52L437.96 334.52L437.96 311.16L451.40 311.16L451.40 313.78L440.81 313.78L440.81 321.02L450.28 321.02L450.28 323.58L440.81 323.58L440.81 331.90L451.40 331.90" fill="white" fill-opacity="0.9"/>
<path d="M463.69 334.84Q460.30 334.84 458.28 333.05Q456.27 331.26 456.27 328.12L459.15 328.12Q459.15 330.07 460.39 331.18Q461.64 332.28 463.69 332.28Q465.67 332.28 466.86 331.13Q468.04 329.98 468.04 328.12Q468.04 326.71 467.29 325.67Q466.54 324.63 465.13 324.25L461.58 323.26Q459.37 322.62 458.11 320.97Q456.84 319.32 456.84 317.08Q456.84 315.22 457.67 313.82Q458.51 312.41 460.01 311.62Q461.51 310.84 463.47 310.84Q465.45 310.84 466.97 311.62Q468.49 312.41 469.35 313.80Q470.22 315.19 470.22 317.02L467.34 317.02Q467.34 315.42 466.25 314.41Q465.16 313.40 463.47 313.40Q461.77 313.40 460.71 314.41Q459.66 315.42 459.66 317.02Q459.66 318.30 460.35 319.21Q461.03 320.12 462.28 320.47L465.93 321.50Q468.27 322.14 469.56 323.91Q470.86 325.69 470.86 328.12Q470.86 331.19 468.91 333.02Q466.95 334.84 463.69 334.84" fill="white" fill-opacity="0.9"/>
</g>
<path d="M77.30 197.88Q74.90 197.88 73.50 196.54Q72.11 195.19 72.11 192.84L72.11 184.92Q72.11 182.57 73.50 181.22Q74.90 179.88 77.30 179.88Q79.65 179.88 81.04 181.24Q82.43 182.59 82.43 184.92L80.27 184.92Q80.27 183.43 79.49 182.63Q78.71 181.82 77.30 181.82Q75.88 181.82 75.08 182.62Q74.27 183.41 74.27 184.90L74.27 192.84Q74.27 194.33 75.08 195.14Q75.88 195.96 77.30 195.96Q78.71 195.96 79.49 195.14Q80.27 194.33 80.27 192.84L80.27 190.44L76.72 190.44L76.72 188.47L82.43 188.47L82.43 192.84Q82.43 195.17 81.04 196.52Q79.65 197.88 77.30 197.88" fill="white" fill-opacity="0.7"/>
<path d="M91.60 197.88Q89.27 197.88 87.84 196.48Q86.42 195.07 86.42 192.60L86.42 189.48Q86.42 187.01 87.84 185.60Q89.27 184.20 91.60 184.20Q93.16 184.20 94.32 184.82Q95.49 185.45 96.14 186.58Q96.78 187.70 96.78 189.24L96.78 191.59L88.53 191.59L88.53 192.84Q88.53 194.30 89.37 195.16Q90.21 196.01 91.60 196.01Q92.80 196.01 93.58 195.54Q94.36 195.07 94.53 194.28L96.69 194.28Q96.47 195.94 95.08 196.91Q93.69 197.88 91.60 197.88M88.53 189.24L88.53 189.91L94.67 189.91L94.67 189.24Q94.67 187.68 93.87 186.83Q93.06 185.98 91.60 185.98Q90.14 185.98 89.33 186.83Q88.53 187.68 88.53 189.24" fill="white" fill-opacity="0.7"/>
<path d="M103.17 197.64L101.01 197.64L101.01 184.44L103.17 184.44L103.17 186.96L103.19 186.96Q103.36 185.64 104.27 184.92Q105.18 184.20 106.70 184.20Q108.69 184.20 109.86 185.42Q111.04 186.65 111.04 188.76L111.04 197.64L108.88 197.64L108.88 189.14Q108.88 187.63 108.12 186.83Q107.37 186.02 106.07 186.02Q104.73 186.02 103.95 186.86Q103.17 187.70 103.17 189.24" fill="white" fill-opacity="0.7"/>
<path d="M120.40 197.88Q118.07 197.88 116.64 196.48Q115.22 195.07 115.22 192.60L115.22 189.48Q115.22 187.01 116.64 185.60Q118.07 184.20 120.40 184.20Q121.96 184.20 123.12 184.82Q124.29 185.45 124.94 186.58Q125.58 187.70 125.58 189.24L125.58 191.59L117.33 191.59L117.33 192.84Q117.33 194.30 118.17 195.16Q119.01 196.01 120.40 196.01Q121.60 196.01 122.38 195.54Q123.16 195.07 123.33 194.28L125.49 194.28Q125.27 195.94 123.88 196.91Q122.49 197.88 120.40 197.88M117.33 189.24L117.33 189.91L123.47 189.91L123.47 189.24Q123.47 187.68 122.67 186.83Q121.86 185.98 120.40 185.98Q118.94 185.98 118.13 186.83Q117.33 187.68 117.33 189.24" fill="white" fill-opacity="0.7"/>
<path d="M132.45 197.64L130.29 197.64L130.29 184.44L132.45 184.44L132.45 186.96L132.50 186.96Q132.66 185.69 133.58 184.94Q134.49 184.20 136.02 184.20Q138.09 184.20 139.20 185.44Q140.32 186.67 140.32 188.95L140.32 190.08L138.16 190.08L138.16 188.95Q138.16 186.07 135.35 186.07Q133.94 186.07 133.19 186.89Q132.45 187.70 132.45 189.24" fill="white" fill-opacity="0.7"/>
<path d="M148.05 197.88Q146.01 197.88 144.81 196.74Q143.61 195.60 143.61 193.75Q143.61 192.53 144.16 191.62Q144.71 190.70 145.70 190.19Q146.68 189.67 147.95 189.67L152.03 189.67L152.03 188.64Q152.03 186.07 149.22 186.07Q147.98 186.07 147.21 186.53Q146.44 186.98 146.39 187.80L144.23 187.80Q144.35 186.24 145.68 185.22Q147.02 184.20 149.22 184.20Q151.62 184.20 152.91 185.35Q154.19 186.50 154.19 188.57L154.19 197.64L152.06 197.64L152.06 195.24L152.01 195.24Q151.82 196.46 150.78 197.17Q149.75 197.88 148.05 197.88M148.58 196.06Q150.16 196.06 151.10 195.29Q152.03 194.52 152.03 193.20L152.03 191.35L148.19 191.35Q147.14 191.35 146.48 191.99Q145.82 192.62 145.82 193.68Q145.82 194.78 146.55 195.42Q147.28 196.06 148.58 196.06" fill="white" fill-opacity="0.7"/>
<path d="M168.76 197.64L164.92 197.64Q163.29 197.64 162.30 196.69Q161.32 195.74 161.32 194.16L161.32 186.41L157.53 186.41L157.53 184.44L161.32 184.44L161.32 180.72L163.48 180.72L163.48 184.44L168.88 184.44L168.88 186.41L163.48 186.41L163.48 194.16Q163.48 194.83 163.88 195.25Q164.27 195.67 164.92 195.67L168.76 195.67" fill="white" fill-opacity="0.7"/>
<path d="MNaN 197.88Q175.67 197.88 174.24 196.48Q172.82 195.07 172.82 192.60L172.82 189.48Q172.82 187.01 174.24 185.60Q175.67 184.20 NaN 184.20Q179.56 184.20 180.72 184.82Q181.89 185.45 182.54 186.58Q183.18 187.70 183.18 189.24L183.18 191.59L174.93 191.59L174.93 192.84Q174.93 194.30 175.77 195.16Q176.61 196.01 NaN 196.01Q179.20 196.01 179.98 195.54Q180.76 195.07 180.93 194.28L183.09 194.28Q182.87 195.94 181.48 196.91Q180.09 197.88 NaN 197.88M174.93 189.24L174.93 189.91L181.07 189.91L181.07 189.24Q181.07 187.68 180.27 186.83Q179.46 185.98 NaN 185.98Q176.54 185.98 175.73 186.83Q174.93 187.68 174.93 189.24" fill="white" fill-opacity="0.7"/>
<path d="M203.97 201.96L201.81 201.96L201.81 184.44L203.97 184.44L203.97 186.96L203.99 186.96Q204.16 185.66 205.12 184.93Q206.08 184.20 207.57 184.20Q209.56 184.20 210.74 185.51Q211.91 186.82 211.91 189.10L211.91 192.96Q211.91 195.24 210.74 196.56Q209.56 197.88 207.57 197.88Q206.08 197.88 205.12 197.14Q204.16 196.39 203.99 195.12L203.92 195.12L203.97 198.12L203.97 201.96M206.85 196.01Q208.22 196.01 208.98 195.29Q209.75 194.57 209.75 192.96L209.75 189.12Q209.75 187.49 208.98 186.78Q208.22 186.07 206.85 186.07Q205.53 186.07 204.75 186.91Q203.97 187.75 203.97 189.24L203.97 192.84Q203.97 194.33 204.75 195.17Q205.53 196.01 206.85 196.01" fill="white" fill-opacity="0.7"/>
<path d="M227.32 197.64L216.04 197.64L216.04 195.67L220.72 195.67L220.72 186.41L216.52 186.41L216.52 184.44L222.88 184.44L222.88 195.67L227.32 195.67L227.32 197.64M221.56 182.06Q220.77 182.06 220.31 181.66Q219.86 181.25 219.86 180.55Q219.86 179.83 220.31 179.41Q220.77 178.99 221.56 178.99Q222.35 178.99 222.81 179.41Q223.26 179.83 223.26 180.55Q223.26 181.25 222.81 181.66Q222.35 182.06 221.56 182.06" fill="white" fill-opacity="0.7"/>
<path d="M233.25 197.64L231.09 197.64L231.09 184.44L233.25 184.44L233.25 186.96L233.30 186.96Q233.46 185.69 234.38 184.94Q235.29 184.20 236.82 184.20Q238.89 184.20 240 185.44Q241.12 186.67 241.12 188.95L241.12 190.08L238.96 190.08L238.96 188.95Q238.96 186.07 236.15 186.07Q234.74 186.07 233.99 186.89Q233.25 187.70 233.25 189.24" fill="white" fill-opacity="0.7"/>
<path d="M248.85 197.88Q246.81 197.88 245.61 196.74Q244.41 195.60 244.41 193.75Q244.41 192.53 244.96 191.62Q245.51 190.70 246.50 190.19Q247.48 189.67 248.75 189.67L252.83 189.67L252.83 188.64Q252.83 186.07 250.02 186.07Q248.78 186.07 248.01 186.53Q247.24 186.98 247.19 187.80L245.03 187.80Q245.15 186.24 246.48 185.22Q247.82 184.20 250.02 184.20Q252.42 184.20 253.71 185.35Q254.99 186.50 254.99 188.57L254.99 197.64L252.86 197.64L252.86 195.24L252.81 195.24Q252.62 196.46 251.58 197.17Q250.55 197.88 248.85 197.88M249.38 196.06Q250.96 196.06 251.90 195.29Q252.83 194.52 252.83 193.20L252.83 191.35L248.99 191.35Q247.94 191.35 247.28 191.99Q246.62 192.62 246.62 193.68Q246.62 194.78 247.35 195.42Q248.08 196.06 249.38 196.06" fill="white" fill-opacity="0.7"/>
<path d="M269.56 197.64L265.72 197.64Q264.09 197.64 263.10 196.69Q262.12 195.74 262.12 194.16L262.12 186.41L258.33 186.41L258.33 184.44L262.12 184.44L262.12 180.72L264.28 180.72L264.28 184.44L269.68 184.44L269.68 186.41L264.28 186.41L264.28 194.16Q264.28 194.83 264.68 195.25Q265.07 195.67 265.72 195.67L269.56 195.67" fill="white" fill-opacity="0.7"/>
<path d="M278.80 197.88Q276.47 197.88 275.04 196.48Q273.62 195.07 273.62 192.60L273.62 189.48Q273.62 187.01 275.04 185.60Q276.47 184.20 278.80 184.20Q280.36 184.20 281.52 184.82Q282.69 185.45 283.34 186.58Q283.98 187.70 283.98 189.24L283.98 191.59L275.73 191.59L275.73 192.84Q275.73 194.30 276.57 195.16Q277.41 196.01 278.80 196.01Q280 196.01 280.78 195.54Q281.56 195.07 281.73 194.28L283.89 194.28Q283.67 195.94 282.28 196.91Q280.89 197.88 278.80 197.88M275.73 189.24L275.73 189.91L281.87 189.91L281.87 189.24Q281.87 187.68 281.07 186.83Q280.26 185.98 278.80 185.98Q277.34 185.98 276.53 186.83Q275.73 187.68 275.73 189.24" fill="white" fill-opacity="0.7"/>
<path d="M304.77 197.64L302.61 197.64L302.61 184.44L304.77 184.44L304.77 186.96L304.79 186.96Q304.96 185.64 305.87 184.92Q306.78 184.20 308.30 184.20Q310.29 184.20 311.46 185.42Q312.64 186.65 312.64 188.76L312.64 197.64L310.48 197.64L310.48 189.14Q310.48 187.63 309.72 186.83Q308.97 186.02 307.67 186.02Q306.33 186.02 305.55 186.86Q304.77 187.70 304.77 189.24" fill="white" fill-opacity="0.7"/>
<path d="M320.85 197.88Q318.81 197.88 317.61 196.74Q316.41 195.60 316.41 193.75Q316.41 192.53 316.96 191.62Q317.51 190.70 318.50 190.19Q319.48 189.67 320.75 189.67L324.83 189.67L324.83 188.64Q324.83 186.07 322.02 186.07Q320.78 186.07 320.01 186.53Q319.24 186.98 319.19 187.80L317.03 187.80Q317.15 186.24 318.48 185.22Q319.82 184.20 322.02 184.20Q324.42 184.20 325.71 185.35Q326.99 186.50 326.99 188.57L326.99 197.64L324.86 197.64L324.86 195.24L324.81 195.24Q324.62 196.46 323.58 197.17Q322.55 197.88 320.85 197.88M321.38 196.06Q322.96 196.06 323.90 195.29Q324.83 194.52 324.83 193.20L324.83 191.35L320.99 191.35Q319.94 191.35 319.28 191.99Q318.62 192.62 318.62 193.68Q318.62 194.78 319.35 195.42Q320.08 196.06 321.38 196.06" fill="white" fill-opacity="0.7"/>
<path d="M332.66 197.64L330.64 197.64L330.64 184.44L332.51 184.44L332.51 186.19L332.56 186.19Q332.68 185.30 333.27 184.75Q333.86 184.20 334.77 184.20Q335.63 184.20 336.23 184.70Q336.83 185.21 337.10 186.07L337.12 186.07Q337.29 185.21 337.88 184.70Q338.46 184.20 339.38 184.20Q340.65 184.20 341.40 185.15Q342.16 186.10 342.16 187.61L342.16 197.64L340.14 197.64L340.14 187.58Q340.14 186.79 339.76 186.32Q339.38 185.86 338.70 185.86Q338.06 185.86 337.67 186.31Q337.29 186.77 337.29 187.56L337.29 197.64L335.51 197.64L335.51 187.58Q335.51 186.79 335.13 186.32Q334.74 185.86 334.10 185.86Q333.42 185.86 333.04 186.31Q332.66 186.77 332.66 187.56" fill="white" fill-opacity="0.7"/>
<path d="M350.80 197.88Q348.47 197.88 347.04 196.48Q345.62 195.07 345.62 192.60L345.62 189.48Q345.62 187.01 347.04 185.60Q348.47 184.20 350.80 184.20Q352.36 184.20 353.52 184.82Q354.69 185.45 355.34 186.58Q355.98 187.70 355.98 189.24L355.98 191.59L347.73 191.59L347.73 192.84Q347.73 194.30 348.57 195.16Q349.41 196.01 350.80 196.01Q352 196.01 352.78 195.54Q353.56 195.07 353.73 194.28L355.89 194.28Q355.67 195.94 354.28 196.91Q352.89 197.88 350.80 197.88M347.73 189.24L347.73 189.91L353.87 189.91L353.87 189.24Q353.87 187.68 353.07 186.83Q352.26 185.98 350.80 185.98Q349.34 185.98 348.53 186.83Q347.73 187.68 347.73 189.24" fill="white" fill-opacity="0.7"/>
<path d="M365.73 197.83L364.67 197.83Q362.46 197.83 361.25 196.84Q360.04 195.84 360.04 194.02L362.20 194.02Q362.20 194.93 362.85 195.44Q363.50 195.96 364.67 195.96L365.73 195.96Q366.93 195.96 367.59 195.43Q368.25 194.90 368.25 193.94Q368.25 192.24 366.69 192.02L363.04 191.50Q361.70 191.30 360.95 190.38Q360.21 189.46 360.21 187.94Q360.21 186.22 361.40 185.23Q362.58 184.25 364.67 184.25L365.73 184.25Q367.65 184.25 368.86 185.20Q370.07 186.14 370.17 187.68L367.98 187.68Q367.94 186.98 367.32 186.53Q366.71 186.07 365.73 186.07L364.67 186.07Q363.57 186.07 362.94 186.58Q362.32 187.08 362.32 187.94Q362.32 189.34 363.59 189.53L367 190.01Q370.36 190.49 370.36 193.94Q370.36 195.79 369.15 196.81Q367.94 197.83 365.73 197.83" fill="white" fill-opacity="0.7"/>
<path d="M379.67 201.48L377.44 201.48L378.76 194.14L381.35 194.14" fill="white" fill-opacity="0.7"/>
<path d="M414.52 197.64L403.24 197.64L403.24 195.67L407.92 195.67L407.92 186.41L403.72 186.41L403.72 184.44L410.08 184.44L410.08 195.67L414.52 195.67L414.52 197.64M408.76 182.06Q407.97 182.06 407.51 181.66Q407.06 181.25 407.06 180.55Q407.06 179.83 407.51 179.41Q407.97 178.99 408.76 178.99Q409.55 178.99 410.01 179.41Q410.46 179.83 410.46 180.55Q410.46 181.25 410.01 181.66Q409.55 182.06 408.76 182.06" fill="white" fill-opacity="0.7"/>
<path d="M419.97 197.64L417.81 197.64L417.81 184.44L419.97 184.44L419.97 186.96L419.99 186.96Q420.16 185.64 421.07 184.92Q421.98 184.20 423.50 184.20Q425.49 184.20 426.66 185.42Q427.84 186.65 427.84 188.76L427.84 197.64L425.68 197.64L425.68 189.14Q425.68 187.63 424.92 186.83Q424.17 186.02 422.87 186.02Q421.53 186.02 420.75 186.86Q419.97 187.70 419.97 189.24" fill="white" fill-opacity="0.7"/>
<path d="M437.73 197.83L436.67 197.83Q434.46 197.83 433.25 196.84Q432.04 195.84 432.04 194.02L434.20 194.02Q434.20 194.93 434.85 195.44Q435.50 195.96 436.67 195.96L437.73 195.96Q438.93 195.96 439.59 195.43Q440.25 194.90 440.25 193.94Q440.25 192.24 438.69 192.02L435.04 191.50Q433.70 191.30 432.95 190.38Q432.21 189.46 432.21 187.94Q432.21 186.22 433.40 185.23Q434.58 184.25 436.67 184.25L437.73 184.25Q439.65 184.25 440.86 185.20Q442.07 186.14 442.17 187.68L439.98 187.68Q439.94 186.98 439.32 186.53Q438.71 186.07 437.73 186.07L436.67 186.07Q435.57 186.07 434.94 186.58Q434.32 187.08 434.32 187.94Q434.32 189.34 435.59 189.53L439 190.01Q442.36 190.49 442.36 193.94Q442.36 195.79 441.15 196.81Q439.94 197.83 437.73 197.83" fill="white" fill-opacity="0.7"/>
<path d="M451.58 197.88Q449.30 197.88 447.93 196.52Q446.56 195.17 446.56 192.84L446.56 184.44L448.72 184.44L448.72 192.84Q448.72 194.28 449.49 195.13Q450.26 195.98 451.58 195.98Q452.92 195.98 453.70 195.13Q454.48 194.28 454.48 192.84L454.48 184.44L456.64 184.44L456.64 192.84Q456.64 195.17 455.25 196.52Q453.86 197.88 451.58 197.88" fill="white" fill-opacity="0.7"/>
<path d="M472 197.64L467.92 197.64Q466.17 197.64 465.12 196.62Q464.08 195.60 464.08 193.92L464.08 182.09L459.52 182.09L459.52 180.12L466.24 180.12L466.24 193.92Q466.24 194.74 466.70 195.20Q467.15 195.67 467.92 195.67L472 195.67" fill="white" fill-opacity="0.7"/>
<path d="M485.56 197.64L481.72 197.64Q480.09 197.64 479.10 196.69Q478.12 195.74 478.12 194.16L478.12 186.41L474.33 186.41L474.33 184.44L478.12 184.44L478.12 180.72L480.28 180.72L480.28 184.44L485.68 184.44L485.68 186.41L480.28 186.41L480.28 194.16Q480.28 194.83 480.68 195.25Q481.07 195.67 481.72 195.67L485.56 195.67" fill="white" fill-opacity="0.7"/>
<path d="M495.33 197.83L494.27 197.83Q492.06 197.83 490.85 196.84Q489.64 195.84 489.64 194.02L491.80 194.02Q491.80 194.93 492.45 195.44Q493.10 195.96 494.27 195.96L495.33 195.96Q496.53 195.96 497.19 195.43Q497.85 194.90 497.85 193.94Q497.85 192.24 496.29 192.02L492.64 191.50Q491.30 191.30 490.55 190.38Q489.81 189.46 489.81 187.94Q489.81 186.22 491 185.23Q492.18 184.25 494.27 184.25L495.33 184.25Q497.25 184.25 498.46 185.20Q499.67 186.14 499.77 187.68L497.58 187.68Q497.54 186.98 496.92 186.53Q496.31 186.07 495.33 186.07L494.27 186.07Q493.17 186.07 492.54 186.58Q491.92 187.08 491.92 187.94Q491.92 189.34 493.19 189.53L496.60 190.01Q499.96 190.49 499.96 193.94Q499.96 195.79 498.75 196.81Q497.54 197.83 495.33 197.83" fill="white" fill-opacity="0.7"/>
<path d="M509.27 201.48L507.04 201.48L508.36 194.14L510.95 194.14" fill="white" fill-opacity="0.7"/>
<path d="M538.12 197.64L535.96 197.64L535.96 188.21L532.12 188.21L532.12 186.24L535.96 186.24L535.96 183.48Q535.96 181.92 536.94 181.02Q537.93 180.12 539.66 180.12L543.52 180.12L543.52 182.09L539.66 182.09Q538.12 182.09 538.12 183.48L538.12 186.24L543.52 186.24L543.52 188.21L538.12 188.21" fill="white" fill-opacity="0.7"/>
<path d="M558.52 197.64L547.24 197.64L547.24 195.67L551.92 195.67L551.92 186.41L547.72 186.41L547.72 184.44L554.08 184.44L554.08 195.67L558.52 195.67L558.52 197.64M552.76 182.06Q551.97 182.06 551.51 181.66Q551.06 181.25 551.06 180.55Q551.06 179.83 551.51 179.41Q551.97 178.99 552.76 178.99Q553.55 178.99 554.01 179.41Q554.46 179.83 554.46 180.55Q554.46 181.25 554.01 181.66Q553.55 182.06 552.76 182.06" fill="white" fill-opacity="0.7"/>
<path d="M572.80 197.64L568.72 197.64Q566.97 197.64 565.92 196.62Q564.88 195.60 564.88 193.92L564.88 182.09L560.32 182.09L560.32 180.12L567.04 180.12L567.04 193.92Q567.04 194.74 567.50 195.20Q567.95 195.67 568.72 195.67L572.80 195.67" fill="white" fill-opacity="0.7"/>
<path d="M587.20 197.64L583.12 197.64Q581.37 197.64 580.32 196.62Q579.28 195.60 579.28 193.92L579.28 182.09L574.72 182.09L574.72 180.12L581.44 180.12L581.44 193.92Q581.44 194.74 581.90 195.20Q582.35 195.67 583.12 195.67L587.20 195.67" fill="white" fill-opacity="0.7"/>
<path d="M595.60 197.88Q593.27 197.88 591.84 196.48Q590.42 195.07 590.42 192.60L590.42 189.48Q590.42 187.01 591.84 185.60Q593.27 184.20 595.60 184.20Q597.16 184.20 598.32 184.82Q599.49 185.45 600.14 186.58Q600.78 187.70 600.78 189.24L600.78 191.59L592.53 191.59L592.53 192.84Q592.53 194.30 593.37 195.16Q594.21 196.01 595.60 196.01Q596.80 196.01 597.58 195.54Q598.36 195.07 598.53 194.28L600.69 194.28Q600.47 195.94 599.08 196.91Q597.69 197.88 595.60 197.88M592.53 189.24L592.53 189.91L598.67 189.91L598.67 189.24Q598.67 187.68 597.87 186.83Q597.06 185.98 595.60 185.98Q594.14 185.98 593.33 186.83Q592.53 187.68 592.53 189.24" fill="white" fill-opacity="0.7"/>
<path d="M607.65 197.64L605.49 197.64L605.49 184.44L607.65 184.44L607.65 186.96L607.70 186.96Q607.86 185.69 608.78 184.94Q609.69 184.20 611.22 184.20Q613.29 184.20 614.40 185.44Q615.52 186.67 615.52 188.95L615.52 190.08L613.36 190.08L613.36 188.95Q613.36 186.07 610.55 186.07Q609.14 186.07 608.39 186.89Q607.65 187.70 607.65 189.24" fill="white" fill-opacity="0.7"/>
<path d="M643.96 197.64L640.12 197.64Q638.49 197.64 637.50 196.69Q636.52 195.74 636.52 194.16L636.52 186.41L632.73 186.41L632.73 184.44L636.52 184.44L636.52 180.72L638.68 180.72L638.68 184.44L644.08 184.44L644.08 186.41L638.68 186.41L638.68 194.16Q638.68 194.83 639.08 195.25Q639.47 195.67 640.12 195.67L643.96 195.67" fill="white" fill-opacity="0.7"/>
<path d="M653.20 197.88Q650.87 197.88 649.44 196.48Q648.02 195.07 648.02 192.60L648.02 189.48Q648.02 187.01 649.44 185.60Q650.87 184.20 653.20 184.20Q654.76 184.20 655.92 184.82Q657.09 185.45 657.74 186.58Q658.38 187.70 658.38 189.24L658.38 191.59L650.13 191.59L650.13 192.84Q650.13 194.30 650.97 195.16Q651.81 196.01 653.20 196.01Q654.40 196.01 655.18 195.54Q655.96 195.07 656.13 194.28L658.29 194.28Q658.07 195.94 656.68 196.91Q655.29 197.88 653.20 197.88M650.13 189.24L650.13 189.91L656.27 189.91L656.27 189.24Q656.27 187.68 655.47 186.83Q654.66 185.98 653.20 185.98Q651.74 185.98 650.93 186.83Q650.13 187.68 650.13 189.24" fill="white" fill-opacity="0.7"/>
<path d="M664.14 197.64L661.60 197.64L666.28 190.85L661.89 184.44L664.43 184.44L667.05 188.52Q667.22 188.78 667.37 189.10Q667.53 189.41 667.62 189.60Q667.70 189.41 667.85 189.10Q668.01 188.78 668.18 188.52L670.79 184.44L673.34 184.44L668.94 190.87L673.60 197.64L671.06 197.64L668.22 193.32Q668.06 193.06 667.90 192.71Q667.74 192.36 667.62 192.14Q667.53 192.36 667.35 192.71Q667.17 193.06 666.98 193.32" fill="white" fill-opacity="0.7"/>
<path d="M687.16 197.64L683.32 197.64Q681.69 197.64 680.70 196.69Q679.72 195.74 679.72 194.16L679.72 186.41L675.93 186.41L675.93 184.44L679.72 184.44L679.72 180.72L681.88 180.72L681.88 184.44L687.28 184.44L687.28 186.41L681.88 186.41L681.88 194.16Q681.88 194.83 682.28 195.25Q682.67 195.67 683.32 195.67L687.16 195.67" fill="white" fill-opacity="0.7"/>
<path d="M696.47 201.48L694.24 201.48L695.56 194.14L698.15 194.14" fill="white" fill-opacity="0.7"/>
<path d="M724.05 197.88Q722.01 197.88 720.81 196.74Q719.61 195.60 719.61 193.75Q719.61 192.53 720.16 191.62Q720.71 190.70 721.70 190.19Q722.68 189.67 723.95 189.67L728.03 189.67L728.03 188.64Q728.03 186.07 725.22 186.07Q723.98 186.07 723.21 186.53Q722.44 186.98 722.39 187.80L720.23 187.80Q720.35 186.24 721.68 185.22Q723.02 184.20 725.22 184.20Q727.62 184.20 728.91 185.35Q730.19 186.50 730.19 188.57L730.19 197.64L728.06 197.64L728.06 195.24L728.01 195.24Q727.82 196.46 726.78 197.17Q725.75 197.88 724.05 197.88M724.58 196.06Q726.16 196.06 727.10 195.29Q728.03 194.52 728.03 193.20L728.03 191.35L724.19 191.35Q723.14 191.35 722.48 191.99Q721.82 192.62 721.82 193.68Q721.82 194.78 722.55 195.42Q723.28 196.06 724.58 196.06" fill="white" fill-opacity="0.7"/>
<path d="M736.77 197.64L734.61 197.64L734.61 184.44L736.77 184.44L736.77 186.96L736.79 186.96Q736.96 185.64 737.87 184.92Q738.78 184.20 740.30 184.20Q742.29 184.20 743.46 185.42Q744.64 186.65 744.64 188.76L744.64 197.64L742.48 197.64L742.48 189.14Q742.48 187.63 741.72 186.83Q740.97 186.02 739.67 186.02Q738.33 186.02 737.55 186.86Q736.77 187.70 736.77 189.24" fill="white" fill-opacity="0.7"/>
<path d="M753.23 197.88Q751.26 197.88 750.08 196.56Q748.89 195.24 748.89 192.98L748.89 189.12Q748.89 186.84 750.06 185.52Q751.24 184.20 753.23 184.20Q754.72 184.20 755.69 184.94Q756.66 185.69 756.86 186.96L756.88 186.96L756.83 183.96L756.83 180.12L758.99 180.12L758.99 197.64L756.83 197.64L756.83 195.12L756.81 195.12Q756.64 196.42 755.68 197.15Q754.72 197.88 753.23 197.88M753.95 196.01Q755.30 196.01 756.06 195.17Q756.83 194.33 756.83 192.84L756.83 189.24Q756.83 187.75 756.06 186.91Q755.30 186.07 753.95 186.07Q752.58 186.07 751.82 186.78Q751.05 187.49 751.05 189.12L751.05 192.96Q751.05 194.57 751.82 195.29Q752.58 196.01 753.95 196.01" fill="white" fill-opacity="0.7"/>
<path d="M787.96 197.64L784.12 197.64Q782.49 197.64 781.50 196.69Q780.52 195.74 780.52 194.16L780.52 186.41L776.73 186.41L776.73 184.44L780.52 184.44L780.52 180.72L782.68 180.72L782.68 184.44L788.08 184.44L788.08 186.41L782.68 186.41L782.68 194.16Q782.68 194.83 783.08 195.25Q783.47 195.67 784.12 195.67L787.96 195.67" fill="white" fill-opacity="0.7"/>
<path d="M794.85 197.64L792.69 197.64L792.69 184.44L794.85 184.44L794.85 186.96L794.90 186.96Q795.06 185.69 795.98 184.94Q796.89 184.20 798.42 184.20Q800.49 184.20 801.60 185.44Q802.72 186.67 802.72 188.95L802.72 190.08L800.56 190.08L800.56 188.95Q800.56 186.07 797.75 186.07Q796.34 186.07 795.59 186.89Q794.85 187.70 794.85 189.24" fill="white" fill-opacity="0.7"/>
<path d="M810.45 197.88Q808.41 197.88 807.21 196.74Q806.01 195.60 806.01 193.75Q806.01 192.53 806.56 191.62Q807.11 190.70 808.10 190.19Q809.08 189.67 810.35 189.67L814.43 189.67L814.43 188.64Q814.43 186.07 811.62 186.07Q810.38 186.07 809.61 186.53Q808.84 186.98 808.79 187.80L806.63 187.80Q806.75 186.24 808.08 185.22Q809.42 184.20 811.62 184.20Q814.02 184.20 815.31 185.35Q816.59 186.50 816.59 188.57L816.59 197.64L814.46 197.64L814.46 195.24L814.41 195.24Q814.22 196.46 813.18 197.17Q812.15 197.88 810.45 197.88M810.98 196.06Q812.56 196.06 813.50 195.29Q814.43 194.52 814.43 193.20L814.43 191.35L810.59 191.35Q809.54 191.35 808.88 191.99Q808.22 192.62 808.22 193.68Q808.22 194.78 808.95 195.42Q809.68 196.06 810.98 196.06" fill="white" fill-opacity="0.7"/>
<path d="M823.17 197.64L821.01 197.64L821.01 184.44L823.17 184.44L823.17 186.96L823.19 186.96Q823.36 185.64 824.27 184.92Q825.18 184.20 826.70 184.20Q828.69 184.20 829.86 185.42Q831.04 186.65 831.04 188.76L831.04 197.64L828.88 197.64L828.88 189.14Q828.88 187.63 828.12 186.83Q827.37 186.02 826.07 186.02Q824.73 186.02 823.95 186.86Q823.17 187.70 823.17 189.24" fill="white" fill-opacity="0.7"/>
<path d="M840.93 197.83L839.87 197.83Q837.66 197.83 836.45 196.84Q835.24 195.84 835.24 194.02L837.40 194.02Q837.40 194.93 838.05 195.44Q838.70 195.96 839.87 195.96L840.93 195.96Q842.13 195.96 842.79 195.43Q843.45 194.90 843.45 193.94Q843.45 192.24 841.89 192.02L838.24 191.50Q836.90 191.30 836.15 190.38Q835.41 189.46 835.41 187.94Q835.41 186.22 836.60 185.23Q837.78 184.25 839.87 184.25L840.93 184.25Q842.85 184.25 844.06 185.20Q845.27 186.14 845.37 187.68L843.18 187.68Q843.14 186.98 842.52 186.53Q841.91 186.07 840.93 186.07L839.87 186.07Q838.77 186.07 838.14 186.58Q837.52 187.08 837.52 187.94Q837.52 189.34 838.79 189.53L842.20 190.01Q845.56 190.49 845.56 193.94Q845.56 195.79 844.35 196.81Q843.14 197.83 840.93 197.83" fill="white" fill-opacity="0.7"/>
<path d="M860.80 197.64L856.72 197.64Q854.97 197.64 853.92 196.62Q852.88 195.60 852.88 193.92L852.88 182.09L848.32 182.09L848.32 180.12L855.04 180.12L855.04 193.92Q855.04 194.74 855.50 195.20Q855.95 195.67 856.72 195.67L860.80 195.67" fill="white" fill-opacity="0.7"/>
<path d="M868.05 197.88Q866.01 197.88 864.81 196.74Q863.61 195.60 863.61 193.75Q863.61 192.53 864.16 191.62Q864.71 190.70 865.70 190.19Q866.68 189.67 867.95 189.67L872.03 189.67L872.03 188.64Q872.03 186.07 869.22 186.07Q867.98 186.07 867.21 186.53Q866.44 186.98 866.39 187.80L864.23 187.80Q864.35 186.24 865.68 185.22Q867.02 184.20 869.22 184.20Q871.62 184.20 872.91 185.35Q874.19 186.50 874.19 188.57L874.19 197.64L872.06 197.64L872.06 195.24L872.01 195.24Q871.82 196.46 870.78 197.17Q869.75 197.88 868.05 197.88M868.58 196.06Q870.16 196.06 871.10 195.29Q872.03 194.52 872.03 193.20L872.03 191.35L868.19 191.35Q867.14 191.35 866.48 191.99Q865.82 192.62 865.82 193.68Q865.82 194.78 866.55 195.42Q867.28 196.06 868.58 196.06" fill="white" fill-opacity="0.7"/>
<path d="M888.76 197.64L884.92 197.64Q883.29 197.64 882.30 196.69Q881.32 195.74 881.32 194.16L881.32 186.41L877.53 186.41L877.53 184.44L881.32 184.44L881.32 180.72L883.48 180.72L883.48 184.44L888.88 184.44L888.88 186.41L883.48 186.41L883.48 194.16Q883.48 194.83 883.88 195.25Q884.27 195.67 884.92 195.67L888.76 195.67" fill="white" fill-opacity="0.7"/>
<path d="M898 197.88Q895.67 197.88 894.24 196.48Q892.82 195.07 892.82 192.60L892.82 189.48Q892.82 187.01 894.24 185.60Q895.67 184.20 898 184.20Q899.56 184.20 900.72 184.82Q901.89 185.45 902.54 186.58Q903.18 187.70 903.18 189.24L903.18 191.59L894.93 191.59L894.93 192.84Q894.93 194.30 895.77 195.16Q896.61 196.01 898 196.01Q899.20 196.01 899.98 195.54Q900.76 195.07 900.93 194.28L903.09 194.28Q902.87 195.94 901.48 196.91Q900.09 197.88 898 197.88M894.93 189.24L894.93 189.91L901.07 189.91L901.07 189.24Q901.07 187.68 900.27 186.83Q899.46 185.98 898 185.98Q896.54 185.98 895.73 186.83Q894.93 187.68 894.93 189.24" fill="white" fill-opacity="0.7"/>
<path d="M931.96 197.64L928.12 197.64Q926.49 197.64 925.50 196.69Q924.52 195.74 924.52 194.16L924.52 186.41L920.73 186.41L920.73 184.44L924.52 184.44L924.52 180.72L926.68 180.72L926.68 184.44L932.08 184.44L932.08 186.41L926.68 186.41L926.68 194.16Q926.68 194.83 927.08 195.25Q927.47 195.67 928.12 195.67L931.96 195.67" fill="white" fill-opacity="0.7"/>
<path d="M941.20 197.83Q938.82 197.83 937.42 196.44Q936.02 195.05 936.02 192.55L936.02 189.53Q936.02 187.01 937.41 185.63Q938.80 184.25 941.20 184.25Q943.60 184.25 944.99 185.63Q946.38 187.01 946.38 189.53L946.38 192.55Q946.38 195.05 944.98 196.44Q943.58 197.83 941.20 197.83M941.20 195.91Q942.62 195.91 943.42 195.12Q944.22 194.33 944.22 192.79L944.22 189.29Q944.22 187.75 943.42 186.96Q942.62 186.17 941.20 186.17Q939.81 186.17 938.99 186.96Q938.18 187.75 938.18 189.29L938.18 192.79Q938.18 194.33 938.99 195.12Q939.81 195.91 941.20 195.91" fill="white" fill-opacity="0.7"/>
<path d="M967.17 201.96L965.01 201.96L965.01 184.44L967.17 184.44L967.17 186.96L967.19 186.96Q967.36 185.66 968.32 184.93Q969.28 184.20 970.77 184.20Q972.76 184.20 973.94 185.51Q975.11 186.82 975.11 189.10L975.11 192.96Q975.11 195.24 973.94 196.56Q972.76 197.88 970.77 197.88Q969.28 197.88 968.32 197.14Q967.36 196.39 967.19 195.12L967.12 195.12L967.17 198.12L967.17 201.96M970.05 196.01Q971.42 196.01 972.18 195.29Q972.95 194.57 972.95 192.96L972.95 189.12Q972.95 187.49 972.18 186.78Q971.42 186.07 970.05 186.07Q968.73 186.07 967.95 186.91Q967.17 187.75 967.17 189.24L967.17 192.84Q967.17 194.33 967.95 195.17Q968.73 196.01 970.05 196.01" fill="white" fill-opacity="0.7"/>
<path d="M990.52 197.64L979.24 197.64L979.24 195.67L983.92 195.67L983.92 186.41L979.72 186.41L979.72 184.44L986.08 184.44L986.08 195.67L990.52 195.67L990.52 197.64M984.76 182.06Q983.97 182.06 983.51 181.66Q983.06 181.25 983.06 180.55Q983.06 179.83 983.51 179.41Q983.97 178.99 984.76 178.99Q985.55 178.99 986.01 179.41Q986.46 179.83 986.46 180.55Q986.46 181.25 986.01 181.66Q985.55 182.06 984.76 182.06" fill="white" fill-opacity="0.7"/>
<path d="M996.45 197.64L994.29 197.64L994.29 184.44L996.45 184.44L996.45 186.96L996.50 186.96Q996.66 185.69 997.58 184.94Q998.49 184.20 1000.02 184.20Q1002.09 184.20 1003.20 185.44Q1004.32 186.67 1004.32 188.95L1004.32 190.08L1002.16 190.08L1002.16 188.95Q1002.16 186.07 999.35 186.07Q997.94 186.07 997.19 186.89Q996.45 187.70 996.45 189.24" fill="white" fill-opacity="0.7"/>
<path d="M1012.05 197.88Q1010.01 197.88 1008.81 196.74Q1007.61 195.60 1007.61 193.75Q1007.61 192.53 1008.16 191.62Q1008.71 190.70 1009.70 190.19Q1010.68 189.67 1011.95 189.67L1016.03 189.67L1016.03 188.64Q1016.03 186.07 1013.22 186.07Q1011.98 186.07 1011.21 186.53Q1010.44 186.98 1010.39 187.80L1008.23 187.80Q1008.35 186.24 1009.68 185.22Q1011.02 184.20 1013.22 184.20Q1015.62 184.20 1016.91 185.35Q1018.19 186.50 1018.19 188.57L1018.19 197.64L1016.06 197.64L1016.06 195.24L1016.01 195.24Q1015.82 196.46 1014.78 197.17Q1013.75 197.88 1012.05 197.88M1012.58 196.06Q1014.16 196.06 1015.10 195.29Q1016.03 194.52 1016.03 193.20L1016.03 191.35L1012.19 191.35Q1011.14 191.35 1010.48 191.99Q1009.82 192.62 1009.82 193.68Q1009.82 194.78 1010.55 195.42Q1011.28 196.06 1012.58 196.06" fill="white" fill-opacity="0.7"/>
<path d="M1032.76 197.64L1028.92 197.64Q1027.29 197.64 1026.30 196.69Q1025.32 195.74 1025.32 194.16L1025.32 186.41L1021.53 186.41L1021.53 184.44L1025.32 184.44L1025.32 180.72L1027.48 180.72L1027.48 184.44L1032.88 184.44L1032.88 186.41L1027.48 186.41L1027.48 194.16Q1027.48 194.83 1027.88 195.25Q1028.27 195.67 1028.92 195.67L1032.76 195.67" fill="white" fill-opacity="0.7"/>
<path d="M1042 197.88Q1039.67 197.88 1038.24 196.48Q1036.82 195.07 1036.82 192.60L1036.82 189.48Q1036.82 187.01 1038.24 185.60Q1039.67 184.20 1042 184.20Q1043.56 184.20 1044.72 184.82Q1045.89 185.45 1046.54 186.58Q1047.18 187.70 1047.18 189.24L1047.18 191.59L1038.93 191.59L1038.93 192.84Q1038.93 194.30 1039.77 195.16Q1040.61 196.01 1042 196.01Q1043.20 196.01 1043.98 195.54Q1044.76 195.07 1044.93 194.28L1047.09 194.28Q1046.87 195.94 1045.48 196.91Q1044.09 197.88 1042 197.88M1038.93 189.24L1038.93 189.91L1045.07 189.91L1045.07 189.24Q1045.07 187.68 1044.27 186.83Q1043.46 185.98 1042 185.98Q1040.54 185.98 1039.73 186.83Q1038.93 187.68 1038.93 189.24" fill="white" fill-opacity="0.7"/>
<path d="M1076.80 197.64L1072.72 197.64Q1070.97 197.64 1069.92 196.62Q1068.88 195.60 1068.88 193.92L1068.88 182.09L1064.32 182.09L1064.32 180.12L1071.04 180.12L1071.04 193.92Q1071.04 194.74 1071.50 195.20Q1071.95 195.67 1072.72 195.67L1076.80 195.67" fill="white" fill-opacity="0.7"/>
<path d="M1091.32 197.64L1080.04 197.64L1080.04 195.67L1084.72 195.67L1084.72 186.41L1080.52 186.41L1080.52 184.44L1086.88 184.44L1086.88 195.67L1091.32 195.67L1091.32 197.64M1085.56 182.06Q1084.77 182.06 1084.31 181.66Q1083.86 181.25 1083.86 180.55Q1083.86 179.83 1084.31 179.41Q1084.77 178.99 1085.56 178.99Q1086.35 178.99 1086.81 179.41Q1087.26 179.83 1087.26 180.55Q1087.26 181.25 1086.81 181.66Q1086.35 182.06 1085.56 182.06" fill="white" fill-opacity="0.7"/>
<path d="M1096.77 197.64L1094.61 197.64L1094.61 184.44L1096.77 184.44L1096.77 186.96L1096.79 186.96Q1096.96 185.64 1097.87 184.92Q1098.78 184.20 1100.30 184.20Q1102.29 184.20 1103.46 185.42Q1104.64 186.65 1104.64 188.76L1104.64 197.64L1102.48 197.64L1102.48 189.14Q1102.48 187.63 1101.72 186.83Q1100.97 186.02 1099.67 186.02Q1098.33 186.02 1097.55 186.86Q1096.77 187.70 1096.77 189.24" fill="white" fill-opacity="0.7"/>
<path d="M1114.36 201.96L1110.66 201.96L1110.66 199.99L1114.38 199.99Q1115.51 199.99 1116.16 199.36Q1116.81 198.72 1116.81 197.64L1116.81 196.44L1116.86 194.28L1116.78 194.28Q1116.59 195.46 1115.66 196.09Q1114.72 196.73 1113.30 196.73Q1111.26 196.73 1110.09 195.43Q1108.91 194.14 1108.91 191.88L1108.91 189.10Q1108.91 186.84 1110.09 185.52Q1111.26 184.20 1113.30 184.20Q1114.72 184.20 1115.66 184.87Q1116.59 185.54 1116.78 186.72L1116.83 186.72L1116.83 184.44L1118.97 184.44L1118.97 197.64Q1118.97 199.63 1117.73 200.80Q1116.50 201.96 1114.36 201.96M1113.95 194.93Q1115.30 194.93 1116.06 194.09Q1116.83 193.25 1116.83 191.76L1116.83 189.24Q1116.83 187.75 1116.06 186.91Q1115.30 186.07 1113.95 186.07Q1112.58 186.07 1111.83 186.86Q1111.07 187.66 1111.07 189L1111.07 192Q1111.07 193.34 1111.83 194.14Q1112.58 194.93 1113.95 194.93" fill="white" fill-opacity="0.7"/>
<path d="M1128.40 197.83Q1126.02 197.83 1124.62 196.44Q1123.22 195.05 1123.22 192.55L1123.22 189.53Q1123.22 187.01 1124.61 185.63Q1126 184.25 1128.40 184.25Q1130.80 184.25 1132.19 185.63Q1133.58 187.01 1133.58 189.53L1133.58 192.55Q1133.58 195.05 1132.18 196.44Q1130.78 197.83 1128.40 197.83M1128.40 195.91Q1129.82 195.91 1130.62 195.12Q1131.42 194.33 1131.42 192.79L1131.42 189.29Q1131.42 187.75 1130.62 186.96Q1129.82 186.17 1128.40 186.17Q1127.01 186.17 1126.19 186.96Q1125.38 187.75 1125.38 189.29L1125.38 192.79Q1125.38 194.33 1126.19 195.12Q1127.01 195.91 1128.40 195.91" fill="white" fill-opacity="0.7"/>
<path d="M1142.80 197.88Q1141.91 197.88 1141.37 197.35Q1140.83 196.82 1140.83 195.98Q1140.83 195.10 1141.37 194.54Q1141.91 193.99 1142.80 193.99Q1143.69 193.99 1144.23 194.54Q1144.77 195.10 1144.77 195.98Q1144.77 196.82 1144.23 197.35Q1143.69 197.88 1142.80 197.88" fill="white" fill-opacity="0.7"/>
<path d="M80.24 136.06L70.74 136.06L70.74 65.98L112.59 65.98L112.59 74.72L80.05 74.72L80.05 96.80L110.10 96.80L110.10 105.44L80.24 105.44L80.24 136.06M148.40 137.02Q138.51 137.02 133.18 131.55Q127.86 126.08 127.86 116.67L127.86 65.98L137.36 65.98L137.36 116.67Q137.36 122.24 140.10 125.40Q142.83 128.57 148.40 128.57Q153.87 128.57 156.70 125.40Q159.54 122.24 159.54 116.67L159.54 65.98L169.04 65.98L169.04 116.67Q169.04 126.17 163.71 131.60Q158.38 137.02 148.40 137.02M194.38 136.06L185.46 136.06L185.46 65.98L197.74 65.98L218.67 125.12Q218.38 122.62 218.14 118.92Q217.90 115.23 217.76 111.24Q217.62 107.26 217.62 103.71L217.62 65.98L226.64 65.98L226.64 136.06L214.26 136.06L193.52 76.92Q193.71 79.42 193.90 83.02Q194.10 86.62 194.24 90.56Q194.38 94.49 194.38 97.95L194.38 136.06M263.98 137.02Q254.29 137.02 248.58 131.60Q242.86 126.17 242.86 116.67L242.86 85.28Q242.86 75.87 248.58 70.44Q254.29 65.02 263.98 65.02Q273.58 65.02 279.30 70.49Q285.01 75.96 285.01 85.28L275.50 85.28Q275.50 79.61 272.43 76.54Q269.36 73.47 263.98 73.47Q258.51 73.47 255.44 76.54Q252.37 79.61 252.37 85.28L252.37 116.67Q252.37 122.43 255.44 125.50Q258.51 128.57 263.98 128.57Q269.36 128.57 272.43 125.50Q275.50 122.43 275.50 116.67L275.50 107.55L261.87 107.55L261.87 99.10L285.01 99.10L285.01 116.67Q285.01 126.08 279.30 131.55Q273.58 137.02 263.98 137.02M342.51 136.06L301.71 136.06L301.71 65.98L342.51 65.98L342.51 74.52L311.12 74.52L311.12 95.36L339.15 95.36L339.15 103.61L311.12 103.61L311.12 127.52L342.51 127.52L342.51 136.06M367.18 136.06L358.26 136.06L358.26 65.98L370.54 65.98L391.47 125.12Q391.18 122.62 390.94 118.92Q390.70 115.23 390.56 111.24Q390.42 107.26 390.42 103.71L390.42 65.98L399.44 65.98L399.44 136.06L387.06 136.06L366.32 76.92Q366.51 79.42 366.70 83.02Q366.90 86.62 367.04 90.56Q367.18 94.49 367.18 97.95L367.18 136.06M457.71 136.06L416.91 136.06L416.91 65.98L457.71 65.98L457.71 74.52L426.32 74.52L426.32 95.36L454.35 95.36L454.35 103.61L426.32 103.61L426.32 127.52L457.71 127.52L457.71 136.06M483.15 136.06L473.74 136.06L473.74 65.98L495.44 65.98Q501.87 65.98 506.67 68.52Q511.47 71.07 514.16 75.63Q516.85 80.19 516.85 86.33Q516.85 93.44 513.25 98.52Q509.65 103.61 503.70 105.72L517.81 136.06L507.34 136.06LNaN 106.78L483.15 106.78L483.15 136.06M483.15 74.43L483.15 98.33L495.44 98.33Q500.82 98.33 503.94 95.07Q507.06 91.80 507.06 86.43Q507.06 80.96 503.89 77.69Q500.72 74.43 495.44 74.43L483.15 74.43M536.91 136.06L527.22 136.06L545.36 65.98L557.94 65.98L575.98 136.06L566.29 136.06L561.87 117.82L541.33 117.82L536.91 136.06M548.34 88.92L543.25 109.95L559.95 109.95L554.96 89.02Q553.52 83.26 552.66 79.23Q551.79 75.20 551.60 73.76Q551.41 75.20 550.54 79.23Q549.68 83.26 548.34 88.92MNaN 136.06L604.50 136.06L604.50 74.62L585.49 74.62L585.49 65.98L632.91 65.98L632.91 74.62LNaN 74.62LNaN 136.06M666.80 137.02Q657.20 137.02 651.63 131.45Q646.06 125.88 646.06 115.71L646.06 86.24Q646.06 76.16 651.63 70.59Q657.20 65.02 666.80 65.02Q676.40 65.02 681.97 70.54Q687.54 76.06 687.54 86.24L687.54 115.71Q687.54 125.88 681.97 131.45Q676.40 137.02 666.80 137.02M666.80 128.57Q672.18 128.57 675.10 125.50Q678.03 122.43 678.03 116.67L678.03 85.28Q678.03 79.61 675.15 76.54Q672.27 73.47 666.80 73.47Q661.33 73.47 658.45 76.54Q655.57 79.61 655.57 85.28L655.57 116.67Q655.57 122.43 658.50 125.50Q661.42 128.57 666.80 128.57M713.55 136.06L704.14 136.06L704.14 65.98L725.84 65.98Q732.27 65.98 737.07 68.52Q741.87 71.07 744.56 75.63Q747.25 80.19 747.25 86.33Q747.25 93.44 743.65 98.52Q740.05 103.61 734.10 105.72L748.21 136.06L737.74 136.06L724.40 106.78L713.55 106.78L713.55 136.06M713.55 74.43L713.55 98.33L725.84 98.33Q731.22 98.33 734.34 95.07Q737.46 91.80 737.46 86.43Q737.46 80.96 734.29 77.69Q731.12 74.43 725.84 74.43L713.55 74.43M782.38 137.02Q772.02 137.02 765.87 131.60Q759.73 126.17 759.73 116.67L769.23 116.67Q769.23 122.24 772.78 125.40Q776.34 128.57 782.38 128.57Q788.14 128.57 791.55 125.36Q794.96 122.14 794.96 116.76Q794.96 112.73 792.75 109.71Q790.54 106.68 786.51 105.63L776.14 102.84Q769.33 100.92 765.34 95.88Q761.36 90.84 761.36 83.93Q761.36 78.27 763.90 74Q766.45 69.72 771.06 67.37Q775.66 65.02 781.71 65.02Q787.86 65.02 792.51 67.37Q797.17 69.72 799.76 73.95Q802.35 78.17 802.35 83.74L792.94 83.74Q792.94 79.13 789.82 76.25Q786.70 73.37 781.71 73.37Q776.72 73.37 773.70 76.25Q770.67 79.13 770.67 83.74Q770.67 87.48 772.69 90.03Q774.70 92.57 778.35 93.63L789.01 96.51Q796.21 98.43 800.24 103.85Q804.27 109.28 804.27 116.76Q804.27 122.91 801.58 127.47Q798.90 132.03 793.95 134.52Q789.01 137.02 782.38 137.02M886.35 136.06L876.85 136.06L876.85 65.98L899.60 65.98Q906.32 65.98 911.22 68.57Q916.11 71.16 918.80 75.82Q921.49 80.48 921.49 86.91Q921.49 93.24 918.80 97.90Q916.11 102.56 911.17 105.15Q906.22 107.74 899.60 107.74L886.35 107.74L886.35 136.06M886.35 74.43L886.35 99.29L899.60 99.29Q905.17 99.29 908.43 95.88Q911.70 92.48 911.70 86.91Q911.70 81.24 908.43 77.84Q905.17 74.43 899.60 74.43L886.35 74.43M973.90 136.06L935.70 136.06L935.70 127.42LNaN 127.42LNaN 74.62L935.70 74.62L935.70 65.98L973.90 65.98L973.90 74.62L959.60 74.62L959.60 127.42L973.90 127.42L973.90 136.06M1001.55 136.06L992.14 136.06L992.14 65.98L1013.84 65.98Q1020.27 65.98 1025.07 68.52Q1029.87 71.07 1032.56 75.63Q1035.25 80.19 1035.25 86.33Q1035.25 93.44 1031.65 98.52Q1028.05 103.61 1022.10 105.72L1036.21 136.06L1025.74 136.06L1012.40 106.78L1001.55 106.78L1001.55 136.06M1001.55 74.43L1001.55 98.33L1013.84 98.33Q1019.22 98.33 1022.34 95.07Q1025.46 91.80 1025.46 86.43Q1025.46 80.96 1022.29 77.69Q1019.12 74.43 1013.84 74.43L1001.55 74.43M1055.31 136.06L1045.62 136.06L1063.76 65.98L1076.34 65.98L1094.38 136.06L1084.69 136.06L1080.27 117.82L1059.73 117.82L1055.31 136.06M1066.74 88.92L1061.65 109.95L1078.35 109.95L1073.36 89.02Q1071.92 83.26 1071.06 79.23Q1070.19 75.20 NaN 73.76Q1069.81 75.20 1068.94 79.23Q1068.08 83.26 1066.74 88.92M1132.40 136.06L1122.90 136.06L1122.90 74.62L1103.89 74.62L1103.89 65.98L1151.31 65.98L1151.31 74.62L1132.40 74.62L1132.40 136.06M1206.51 136.06L1165.71 136.06L1165.71 65.98L1206.51 65.98L1206.51 74.52L1175.12 74.52L1175.12 95.36L1203.15 95.36L1203.15 103.61L1175.12 103.61L1175.12 127.52L1206.51 127.52" fill="url(#paint2_linear_0_1)"/>
<g id="Group 1">
<rect id="Rectangle 1" x="26" y="168" width="12" height="184" rx="5" fill="url(#paint3_linear_0_1)" fill-opacity="0.9"/>
</g>
<g id="Group 1_2">
<rect id="Rectangle 2" x="26" y="38" width="12" height="119" rx="5" fill="url(#paint4_linear_0_1)" fill-opacity="0.9"/>
</g>
<ellipse id="Ellipse 1" cx="148.5" cy="573" rx="215.5" ry="214" fill="url(#paint5_linear_0_1)" fill-opacity="0.4"/>
<rect id="Rectangle 3" x="1229" y="48" width="300" height="300" rx="25" fill="#FFFBFB" fill-opacity="0.9"/>
<g id="placeholder-logo"><g transform="translate(1229,48) translate(0.0,60.0) scale(1.2000)"><g fill="#666666">
  <path d="m88.05,27.65c-3.15,4 -3.2,51.2 -0.05,54.35c2.75,2.75 71.7,3.15 74.45,0.45c2.85,-2.9 2.3,-53.85 -0.65,-55.9c-1.95,-1.35 -7.15,-1.55 -36.95,-1.55l-34.7,0l-2.1,2.65zm69.45,3.35c0.65,0 1,8.6 1,23.75l0,23.75l-33,0l-33,0l-0.25,-23c-0.15,-12.6 -0.1,-23.45 0.15,-24.1c0.35,-0.85 8.9,-1.05 32.25,-0.75c17.55,0.2 32.3,0.35 32.85,0.35z"/>
  <path d="m99.15,37.3c-6.85,7.35 4.25,17.35 11.4,10.25c1.35,-1.35 2.45,-3.65 2.45,-5.05c0,-6.45 -9.35,-9.95 -13.85,-5.2z"/>
  <path d="m135,42.5c-0.7,0.85 -5.25,5.15 -10.1,9.6l-8.85,8.1l-3.2,-3.2l-3.15,-3.15l-6.35,6.3c-5.55,5.5 -6.35,6.75 -6.35,10.05l0,3.8l28.5,0l28.5,0l0,-8.6l0,-8.55l-8.15,-7.7c-9.35,-8.85 -9.15,-8.7 -10.85,-6.65zm7.25,15.2c0.95,0.9 1.75,2.9 1.75,4.45c6.35,-5.05 4.75,-7.15 4.9,-11.55c0.95,0 0,0 0,0l-6.65,7.1z"/>
  <path d="m53.65,110.75c0.1,4.8 0.45,8.65 0.75,8.5c0.35,-0.15 1.3,-0.25 2.1,-0.25c1.1,0 1.5,-1.2 1.5,-4.75l0,-4.75l3.25,5c4.9,7.5 6.2,6.75 6.55,-3.75c0.25,-8.15 0.15,-8.75 -1.7,-8.75c-1.65,0 -2.05,0.8 -2.3,4.75l-0.3,4.75l-2.8,-4.75c-4.85,-8.25 -7.25,-6.9 -7.05,4z"/>
  <path d="m91,108.9c0,9.65 0.3,10.1 6.1,10.1c5.8,0 7.15,-2.65 1.65,-3.2l-3.25,-0.3l-0.3,-6.75c-0.25,-5.95 -0.55,-6.75 -2.25,-6.75c-1.75,0 -1.95,0.7 -1.95,6.9z"/>
  <path d="m151,102.45c0,0.25 1,2.15 2.25,4.2c1.2,2.1 2.45,5.8 2.75,8.25c0.65,5.9 4,6.95 4,1.25c0.05,-2.1 1.25,-5.85 2.95,-8.9l2.9,-5.25l-2.5,0c-1.8,0 -2.8,0.85 -3.75,3.1l-1.3,3.05l-1.25,-3.05c-1.1,-2.6 -6.05,-4.8 -6.05,-2.65z"/>
  <path d="m191,107.45c0,9.05 3.4,8.85 4.25,-0.2c0.45,-5 0.35,-5.25 -1.9,-5.25c-2.2,0 -2.35,0.4 -2.35,5.45z"/>
  <path d="m180.8,104.75c-1.3,5.35 0.65,13.6 3.45,14.35c2.3,0.6 2.75,0.4 2.75,-1.2c0,-1.05 -0.45,-1.9 -1,-1.9c-0.55,0 -1,-1.6 -1,-3.5c0,-1.95 0.45,-3.5 1,-3.5c0.55,0 1,-0.7 1,-1.5c0,-0.85 -0.45,-1.5 -1,-1.5c-0.55,0 -1,-0.7 -1,-1.5c0,-2.1 -3.65,-1.9 -4.2,0.25z"/>
  <path d="m71.55,106.55c-2.2,2.25 -2.05,9.7 0.3,11.8c4.5,4.1 10.15,0.75 10.15,-6.1c0,-4.85 -2,-7.25 -6,-7.25c-1.55,0 -3.55,0.7 -4.45,1.55zm6.25,5.8c0.25,3.05 0,3.65 -1.6,3.65c-2.3,0 -3.25,-2.65 -2.05,-5.85c1.25,-3.35 3.3,-2.1 3.65,2.2z"/>
  <path d="m105.75,106.1c-2.5,1.45 -2.45,9.95 0.1,12.25c4.3,3.9 10.15,0.35 10.15,-6.2c0,-6 -5.15,-9.05 -10.25,-6.05zm6.05,6.25c0.25,3.05 0,3.65 -1.6,3.65c-2.3,0 -3.25,-2.65 -2.05,-5.85c1.25,-3.35 3.3,-2.1 3.65,2.2z"/>
  <path d="m119.2,106.2c-3.8,3.8 -0.4,12.55 4.4,11.35c1.9,-0.45 2.45,-0.3 2.15,0.65c-0.25,0.7 -1.55,1.2 -2.85,1.1c-4.05,-0.3 -5.35,0.45 -3.85,2.25c0.85,1.05 2.6,1.45 5.35,1.25l4.1,-0.3l0.3,-8.75l0.3,-8.75l-4.35,0c-2.4,0 -4.9,0.55 -5.55,1.2zm6.6,4.45c0.4,2.85 -2.15,4.85 -3.75,2.95c-0.9,-1.1 -0.9,-2 -0.05,-3.6c1.35,-2.5 3.4,-2.15 3.8,0.65z"/>
  <path d="m133.55,106.55c-2.2,2.25 -2.05,9.7 0.3,11.8c4.5,4.1 10.15,0.75 10.15,-6.1c0,-4.85 -2,-7.25 -6,-7.25c-1.55,0 -3.55,0.7 -4.45,1.55zm6.25,5.8c0.25,3.05 0,3.65 -1.6,3.65c-2.3,0 -3.25,-2.65 -2.05,-5.85c1.25,-3.35 3.3,-2.1 3.65,2.2z"/>
  <path d="m167.65,106.85c-3.9,4.3 -0.75,13.15 4.7,13.15c2.4,0 5.65,-2.75 5.65,-4.85c0,-1.4 -2.65,-1.55 -3.5,-0.15c-0.95,1.55 -4.5,1.15 -4.5,-0.5c0,-1.1 1.1,-1.5 4,-1.5c3.15,0 4,-0.35 4,-1.8c0,-5.3 -6.85,-8.25 -10.35,-4.35z"/>
  <path d="m191,117.5c0,2.15 0.4,2.6 2.25,2.3c1.5,-0.2 2.25,-1 2.25,-2.3c0,-1.3 -0.75,-2.1 -2.25,-2.3c-1.85,-0.3 -2.25,0.15 -2.25,2.3z"/>
 </g></g></g>
</g>
<defs>
<linearGradient id="paint0_linear_0_1" x1="0" y1="198" x2="1584" y2="198" gradientUnits="userSpaceOnUse">
<stop stop-color="#3D052C"/>
<stop offset="1"/>
</linearGradient>
<linearGradient id="paint1_linear_0_1" x1="323" y1="-224" x2="323" y2="352" gradientUnits="userSpaceOnUse">
<stop stop-color="#28F6F2" stop-opacity="0.4"/>
<stop offset="1" stop-color="#17908E" stop-opacity="0.7"/>
</linearGradient>
<linearGradient id="paint2_linear_0_1" x1="148.5" y1="38" x2="148.5" y2="140" gradientUnits="userSpaceOnUse">
<stop stop-color="white"/>
<stop offset="1" stop-color="#999999"/>
</linearGradient>
<linearGradient id="paint3_linear_0_1" x1="38" y1="260" x2="26" y2="260" gradientUnits="userSpaceOnUse">
<stop stop-color="#D9D9D9"/>
<stop offset="1" stop-color="#737373"/>
</linearGradient>
<linearGradient id="paint4_linear_0_1" x1="38" y1="97.5" x2="26" y2="97.5" gradientUnits="userSpaceOnUse">
<stop stop-color="#D9D9D9"/>
<stop offset="1" stop-color="#737373"/>
</linearGradient>
<linearGradient id="paint5_linear_0_1" x1="27.5" y1="434.5" x2="148.5" y2="787" gradientUnits="userSpaceOnUse">
<stop stop-color="#2E21BC"/>
<stop offset="1" stop-color="#150F56"/>
</linearGradient>
<clipPath id="clip0_0_1">
<rect width="1584" height="396" fill="white"/>
</clipPath>
</defs>
</svg>
